<?xml version='1.0' encoding='UTF-8'?>
<svg xmlns="http://www.w3.org/2000/svg" width="1000" height="800" viewBox="0 0 1000 800">
  <rect width="1000" height="800" fill="white" />
  <polygon points="177.00,384.49 180.20,384.49 180.20,387.92 177.00,387.92" fill="black" />
  <polygon points="180.20,382.10 183.40,382.10 183.40,385.53 180.20,385.53" fill="black" />
  <polygon points="183.40,379.67 186.60,379.67 186.60,383.10 183.40,383.10" fill="black" />
  <polygon points="186.60,377.21 189.80,377.21 189.80,380.64 186.60,380.64" fill="black" />
  <polygon points="189.80,374.73 193.00,374.73 193.00,378.16 189.80,378.16" fill="black" />
  <polygon points="177.00,387.92 180.20,387.92 180.20,391.35 177.00,391.35" fill="black" />
  <polygon points="177.00,391.35 180.20,391.35 180.20,394.78 177.00,394.78" fill="black" />
  <polygon points="177.00,394.78 180.20,394.78 180.20,398.20 177.00,398.20" fill="black" />
  <polygon points="180.20,392.39 183.40,392.39 183.40,395.81 180.20,395.81" fill="black" />
  <polygon points="183.40,389.96 186.60,389.96 186.60,393.38 183.40,393.38" fill="black" />
  <polygon points="186.60,387.50 189.80,387.50 189.80,390.92 186.60,390.92" fill="black" />
  <polygon points="177.00,398.20 180.20,398.20 180.20,401.63 177.00,401.63" fill="black" />
  <polygon points="177.00,401.63 180.20,401.63 180.20,405.06 177.00,405.06" fill="black" />
  <polygon points="177.00,405.06 180.20,405.06 180.20,408.49 177.00,408.49" fill="black" />
  <polygon points="198.20,375.02 201.40,375.02 201.40,378.45 198.20,378.45" fill="black" />
  <polygon points="201.40,372.50 204.60,372.50 204.60,375.93 201.40,375.93" fill="black" />
  <polygon points="204.60,370.00 207.80,370.00 207.80,373.43 204.60,373.43" fill="black" />
  <polygon points="195.00,380.96 198.20,380.96 198.20,384.38 195.00,384.38" fill="black" />
  <polygon points="207.80,370.93 211.00,370.93 211.00,374.35 207.80,374.35" fill="black" />
  <polygon points="195.00,384.38 198.20,384.38 198.20,387.81 195.00,387.81" fill="black" />
  <polygon points="207.80,374.35 211.00,374.35 211.00,377.78 207.80,377.78" fill="black" />
  <polygon points="195.00,387.81 198.20,387.81 198.20,391.24 195.00,391.24" fill="black" />
  <polygon points="207.80,377.78 211.00,377.78 211.00,381.21 207.80,381.21" fill="black" />
  <polygon points="198.20,388.73 201.40,388.73 201.40,392.16 198.20,392.16" fill="black" />
  <polygon points="201.40,386.21 204.60,386.21 204.60,389.64 201.40,389.64" fill="black" />
  <polygon points="204.60,383.71 207.80,383.71 207.80,387.14 204.60,387.14" fill="black" />
  <polygon points="213.00,363.49 216.20,363.49 216.20,366.92 213.00,366.92" fill="black" />
  <polygon points="219.40,358.66 222.60,358.66 222.60,362.09 219.40,362.09" fill="black" />
  <polygon points="222.60,356.31 225.80,356.31 225.80,359.74 222.60,359.74" fill="black" />
  <polygon points="213.00,366.92 216.20,366.92 216.20,370.34 213.00,370.34" fill="black" />
  <polygon points="216.20,364.49 219.40,364.49 219.40,367.91 216.20,367.91" fill="black" />
  <polygon points="225.80,357.43 229.00,357.43 229.00,360.85 225.80,360.85" fill="black" />
  <polygon points="213.00,370.34 216.20,370.34 216.20,373.77 213.00,373.77" fill="black" />
  <polygon points="213.00,373.77 216.20,373.77 216.20,377.20 213.00,377.20" fill="black" />
  <polygon points="213.00,377.20 216.20,377.20 216.20,380.63 213.00,380.63" fill="black" />
  <polygon points="252.20,337.46 255.40,337.46 255.40,340.89 252.20,340.89" fill="black" />
  <polygon points="255.40,335.84 258.60,335.84 258.60,339.27 255.40,339.27" fill="black" />
  <polygon points="258.60,334.32 261.80,334.32 261.80,337.75 258.60,337.75" fill="black" />
  <polygon points="261.80,332.90 265.00,332.90 265.00,336.33 261.80,336.33" fill="black" />
  <polygon points="249.00,342.60 252.20,342.60 252.20,346.02 249.00,346.02" fill="black" />
  <polygon points="252.20,344.31 255.40,344.31 255.40,347.74 252.20,347.74" fill="black" />
  <polygon points="255.40,342.69 258.60,342.69 258.60,346.12 255.40,346.12" fill="black" />
  <polygon points="258.60,341.17 261.80,341.17 261.80,344.60 258.60,344.60" fill="black" />
  <polygon points="261.80,343.18 265.00,343.18 265.00,346.61 261.80,346.61" fill="black" />
  <polygon points="249.00,352.88 252.20,352.88 252.20,356.31 249.00,356.31" fill="black" />
  <polygon points="252.20,351.17 255.40,351.17 255.40,354.60 252.20,354.60" fill="black" />
  <polygon points="255.40,349.55 258.60,349.55 258.60,352.98 255.40,352.98" fill="black" />
  <polygon points="258.60,348.03 261.80,348.03 261.80,351.46 258.60,351.46" fill="black" />
  <polygon points="267.00,330.82 270.20,330.82 270.20,334.25 267.00,334.25" fill="black" />
  <polygon points="279.80,326.98 283.00,326.98 283.00,330.41 279.80,330.41" fill="black" />
  <polygon points="267.00,334.25 270.20,334.25 270.20,337.67 267.00,337.67" fill="black" />
  <polygon points="279.80,330.41 283.00,330.41 283.00,333.83 279.80,333.83" fill="black" />
  <polygon points="267.00,337.67 270.20,337.67 270.20,341.10 267.00,341.10" fill="black" />
  <polygon points="279.80,333.83 283.00,333.83 283.00,337.26 279.80,337.26" fill="black" />
  <polygon points="267.00,341.10 270.20,341.10 270.20,344.53 267.00,344.53" fill="black" />
  <polygon points="276.60,338.04 279.80,338.04 279.80,341.47 276.60,341.47" fill="black" />
  <polygon points="279.80,337.26 283.00,337.26 283.00,340.69 279.80,340.69" fill="black" />
  <polygon points="270.20,343.40 273.40,343.40 273.40,346.83 270.20,346.83" fill="black" />
  <polygon points="273.40,342.38 276.60,342.38 276.60,345.81 273.40,345.81" fill="black" />
  <polygon points="279.80,340.69 283.00,340.69 283.00,344.12 279.80,344.12" fill="black" />
  <polygon points="285.00,325.96 288.20,325.96 288.20,329.39 285.00,329.39" fill="black" />
  <polygon points="288.20,325.50 291.40,325.50 291.40,328.93 288.20,328.93" fill="black" />
  <polygon points="291.40,325.16 294.60,325.16 294.60,328.59 291.40,328.59" fill="black" />
  <polygon points="294.60,324.95 297.80,324.95 297.80,328.38 294.60,328.38" fill="black" />
  <polygon points="285.00,329.39 288.20,329.39 288.20,332.81 285.00,332.81" fill="black" />
  <polygon points="297.80,328.29 301.00,328.29 301.00,331.71 297.80,331.71" fill="black" />
  <polygon points="285.00,332.81 288.20,332.81 288.20,336.24 285.00,336.24" fill="black" />
  <polygon points="288.20,332.35 291.40,332.35 291.40,335.78 288.20,335.78" fill="black" />
  <polygon points="291.40,332.01 294.60,332.01 294.60,335.44 291.40,335.44" fill="black" />
  <polygon points="294.60,331.80 297.80,331.80 297.80,335.23 294.60,335.23" fill="black" />
  <polygon points="285.00,336.24 288.20,336.24 288.20,339.67 285.00,339.67" fill="black" />
  <polygon points="285.00,339.67 288.20,339.67 288.20,343.10 285.00,343.10" fill="black" />
  <polygon points="303.00,324.99 306.20,324.99 306.20,328.42 303.00,328.42" fill="black" />
  <polygon points="306.20,325.23 309.40,325.23 309.40,328.66 306.20,328.66" fill="black" />
  <polygon points="309.40,325.60 312.60,325.60 312.60,329.03 309.40,329.03" fill="black" />
  <polygon points="312.60,326.10 315.80,326.10 315.80,329.53 312.60,329.53" fill="black" />
  <polygon points="303.00,328.42 306.20,328.42 306.20,331.84 303.00,331.84" fill="black" />
  <polygon points="315.80,330.15 319.00,330.15 319.00,333.57 315.80,333.57" fill="black" />
  <polygon points="303.00,331.84 306.20,331.84 306.20,335.27 303.00,335.27" fill="black" />
  <polygon points="306.20,332.08 309.40,332.08 309.40,335.51 306.20,335.51" fill="black" />
  <polygon points="309.40,332.45 312.60,332.45 312.60,335.88 309.40,335.88" fill="black" />
  <polygon points="312.60,332.95 315.80,332.95 315.80,336.38 312.60,336.38" fill="black" />
  <polygon points="303.00,335.27 306.20,335.27 306.20,338.70 303.00,338.70" fill="black" />
  <polygon points="303.00,338.70 306.20,338.70 306.20,342.13 303.00,342.13" fill="black" />
  <polygon points="324.20,328.91 327.40,328.91 327.40,332.34 324.20,332.34" fill="black" />
  <polygon points="327.40,329.96 330.60,329.96 330.60,333.39 327.40,333.39" fill="black" />
  <polygon points="330.60,331.12 333.80,331.12 333.80,334.55 330.60,334.55" fill="black" />
  <polygon points="321.00,331.41 324.20,331.41 324.20,334.83 321.00,334.83" fill="black" />
  <polygon points="333.80,335.82 337.00,335.82 337.00,339.24 333.80,339.24" fill="black" />
  <polygon points="321.00,334.83 324.20,334.83 324.20,338.26 321.00,338.26" fill="black" />
  <polygon points="333.80,339.24 337.00,339.24 337.00,342.67 333.80,342.67" fill="black" />
  <polygon points="321.00,338.26 324.20,338.26 324.20,341.69 321.00,341.69" fill="black" />
  <polygon points="333.80,342.67 337.00,342.67 337.00,346.10 333.80,346.10" fill="black" />
  <polygon points="324.20,342.62 327.40,342.62 327.40,346.05 324.20,346.05" fill="black" />
  <polygon points="327.40,343.67 330.60,343.67 330.60,347.10 327.40,347.10" fill="black" />
  <polygon points="330.60,344.83 333.80,344.83 333.80,348.26 330.60,348.26" fill="black" />
  <polygon points="339.00,334.69 342.20,334.69 342.20,338.12 339.00,338.12" fill="black" />
  <polygon points="345.40,337.88 348.60,337.88 348.60,341.31 345.40,341.31" fill="black" />
  <polygon points="348.60,339.62 351.80,339.62 351.80,343.05 348.60,343.05" fill="black" />
  <polygon points="339.00,338.12 342.20,338.12 342.20,341.54 339.00,341.54" fill="black" />
  <polygon points="342.20,339.66 345.40,339.66 345.40,343.08 342.20,343.08" fill="black" />
  <polygon points="351.80,344.87 355.00,344.87 355.00,348.29 351.80,348.29" fill="black" />
  <polygon points="339.00,341.54 342.20,341.54 342.20,344.97 339.00,344.97" fill="black" />
  <polygon points="339.00,344.97 342.20,344.97 342.20,348.40 339.00,348.40" fill="black" />
  <polygon points="339.00,348.40 342.20,348.40 342.20,351.83 339.00,351.83" fill="black" />
  <polygon points="360.20,339.77 363.40,339.77 363.40,343.20 360.20,343.20" fill="black" />
  <polygon points="360.20,343.20 363.40,343.20 363.40,346.63 360.20,346.63" fill="black" />
  <polygon points="357.00,344.59 360.20,344.59 360.20,348.02 357.00,348.02" fill="black" />
  <polygon points="360.20,346.63 363.40,346.63 363.40,350.06 360.20,350.06" fill="black" />
  <polygon points="363.40,348.74 366.60,348.74 366.60,352.17 363.40,352.17" fill="black" />
  <polygon points="366.60,350.91 369.80,350.91 369.80,354.34 366.60,354.34" fill="black" />
  <polygon points="360.20,350.06 363.40,350.06 363.40,353.48 360.20,353.48" fill="black" />
  <polygon points="360.20,353.48 363.40,353.48 363.40,356.91 360.20,356.91" fill="black" />
  <polygon points="360.20,356.91 363.40,356.91 363.40,360.34 360.20,360.34" fill="black" />
  <polygon points="369.80,363.43 373.00,363.43 373.00,366.86 369.80,366.86" fill="black" />
  <polygon points="363.40,362.45 366.60,362.45 366.60,365.88 363.40,365.88" fill="black" />
  <polygon points="366.60,364.62 369.80,364.62 369.80,368.05 366.60,368.05" fill="black" />
  <polygon points="381.40,371.95 384.60,371.95 384.60,375.38 381.40,375.38" fill="black" />
  <polygon points="378.20,372.97 381.40,372.97 381.40,376.40 378.20,376.40" fill="black" />
  <polygon points="411.00,384.69 414.20,384.69 414.20,388.12 411.00,388.12" fill="black" />
  <polygon points="414.20,387.14 417.40,387.14 417.40,390.57 414.20,390.57" fill="black" />
  <polygon points="417.40,389.56 420.60,389.56 420.60,392.99 417.40,392.99" fill="black" />
  <polygon points="420.60,391.94 423.80,391.94 423.80,395.37 420.60,395.37" fill="black" />
  <polygon points="411.00,388.12 414.20,388.12 414.20,391.54 411.00,391.54" fill="black" />
  <polygon points="423.80,397.71 427.00,397.71 427.00,401.13 423.80,401.13" fill="black" />
  <polygon points="411.00,391.54 414.20,391.54 414.20,394.97 411.00,394.97" fill="black" />
  <polygon points="414.20,393.99 417.40,393.99 417.40,397.42 414.20,397.42" fill="black" />
  <polygon points="417.40,396.41 420.60,396.41 420.60,399.84 417.40,399.84" fill="black" />
  <polygon points="420.60,398.79 423.80,398.79 423.80,402.22 420.60,402.22" fill="black" />
  <polygon points="411.00,394.97 414.20,394.97 414.20,398.40 411.00,398.40" fill="black" />
  <polygon points="411.00,398.40 414.20,398.40 414.20,401.83 411.00,401.83" fill="black" />
  <polygon points="432.20,393.32 435.40,393.32 435.40,396.75 432.20,396.75" fill="black" />
  <polygon points="435.40,395.45 438.60,395.45 438.60,398.88 435.40,398.88" fill="black" />
  <polygon points="435.40,398.88 438.60,398.88 438.60,402.31 435.40,402.31" fill="black" />
  <polygon points="435.40,402.31 438.60,402.31 438.60,405.74 435.40,405.74" fill="black" />
  <polygon points="435.40,405.74 438.60,405.74 438.60,409.16 435.40,409.16" fill="black" />
  <polygon points="435.40,409.16 438.60,409.16 438.60,412.59 435.40,412.59" fill="black" />
  <polygon points="435.40,412.59 438.60,412.59 438.60,416.02 435.40,416.02" fill="black" />
  <polygon points="432.20,413.89 435.40,413.89 435.40,417.32 432.20,417.32" fill="black" />
  <polygon points="435.40,416.02 438.60,416.02 438.60,419.45 435.40,419.45" fill="black" />
  <polygon points="438.60,418.09 441.80,418.09 441.80,421.52 438.60,421.52" fill="black" />
  <polygon points="450.20,411.20 453.40,411.20 453.40,414.63 450.20,414.63" fill="black" />
  <polygon points="453.40,412.88 456.60,412.88 456.60,416.31 453.40,416.31" fill="black" />
  <polygon points="456.60,414.46 459.80,414.46 459.80,417.89 456.60,417.89" fill="black" />
  <polygon points="447.00,412.86 450.20,412.86 450.20,416.28 447.00,416.28" fill="black" />
  <polygon points="459.80,419.38 463.00,419.38 463.00,422.80 459.80,422.80" fill="black" />
  <polygon points="447.00,416.28 450.20,416.28 450.20,419.71 447.00,419.71" fill="black" />
  <polygon points="450.20,418.05 453.40,418.05 453.40,421.48 450.20,421.48" fill="black" />
  <polygon points="453.40,419.73 456.60,419.73 456.60,423.16 453.40,423.16" fill="black" />
  <polygon points="456.60,421.31 459.80,421.31 459.80,424.74 456.60,424.74" fill="black" />
  <polygon points="459.80,422.80 463.00,422.80 463.00,426.23 459.80,426.23" fill="black" />
  <polygon points="447.00,419.71 450.20,419.71 450.20,423.14 447.00,423.14" fill="black" />
  <polygon points="450.20,424.91 453.40,424.91 453.40,428.34 450.20,428.34" fill="black" />
  <polygon points="453.40,426.59 456.60,426.59 456.60,430.02 453.40,430.02" fill="black" />
  <polygon points="456.60,428.17 459.80,428.17 459.80,431.60 456.60,431.60" fill="black" />
  <polygon points="468.20,419.34 471.40,419.34 471.40,422.77 468.20,422.77" fill="black" />
  <polygon points="471.40,420.43 474.60,420.43 474.60,423.86 471.40,423.86" fill="black" />
  <polygon points="474.60,421.41 477.80,421.41 477.80,424.84 474.60,424.84" fill="black" />
  <polygon points="477.80,425.70 481.00,425.70 481.00,429.12 477.80,429.12" fill="black" />
  <polygon points="468.20,426.19 471.40,426.19 471.40,429.62 468.20,429.62" fill="black" />
  <polygon points="471.40,427.28 474.60,427.28 474.60,430.71 471.40,430.71" fill="black" />
  <polygon points="474.60,428.26 477.80,428.26 477.80,431.69 474.60,431.69" fill="black" />
  <polygon points="477.80,429.12 481.00,429.12 481.00,432.55 477.80,432.55" fill="black" />
  <polygon points="465.00,428.42 468.20,428.42 468.20,431.85 465.00,431.85" fill="black" />
  <polygon points="477.80,432.55 481.00,432.55 481.00,435.98 477.80,435.98" fill="black" />
  <polygon points="468.20,433.05 471.40,433.05 471.40,436.48 468.20,436.48" fill="black" />
  <polygon points="471.40,434.14 474.60,434.14 474.60,437.57 471.40,437.57" fill="black" />
  <polygon points="474.60,435.12 477.80,435.12 477.80,438.55 474.60,438.55" fill="black" />
  <polygon points="477.80,435.98 481.00,435.98 481.00,439.41 477.80,439.41" fill="black" />
  <polygon points="486.20,423.94 489.40,423.94 489.40,427.37 486.20,427.37" fill="black" />
  <polygon points="489.40,424.36 492.60,424.36 492.60,427.79 489.40,427.79" fill="black" />
  <polygon points="492.60,424.65 495.80,424.65 495.80,428.08 492.60,428.08" fill="black" />
  <polygon points="495.80,424.82 499.00,424.82 499.00,428.25 495.80,428.25" fill="black" />
  <polygon points="483.00,426.83 486.20,426.83 486.20,430.25 483.00,430.25" fill="black" />
  <polygon points="486.20,430.79 489.40,430.79 489.40,434.22 486.20,434.22" fill="black" />
  <polygon points="489.40,431.21 492.60,431.21 492.60,434.64 489.40,434.64" fill="black" />
  <polygon points="492.60,431.50 495.80,431.50 495.80,434.93 492.60,434.93" fill="black" />
  <polygon points="495.80,435.10 499.00,435.10 499.00,438.53 495.80,438.53" fill="black" />
  <polygon points="483.00,437.11 486.20,437.11 486.20,440.54 483.00,440.54" fill="black" />
  <polygon points="486.20,437.65 489.40,437.65 489.40,441.08 486.20,441.08" fill="black" />
  <polygon points="489.40,438.07 492.60,438.07 492.60,441.50 489.40,441.50" fill="black" />
  <polygon points="492.60,438.36 495.80,438.36 495.80,441.79 492.60,441.79" fill="black" />
  <polygon points="504.20,424.65 507.40,424.65 507.40,428.08 504.20,428.08" fill="black" />
  <polygon points="507.40,424.36 510.60,424.36 510.60,427.79 507.40,427.79" fill="black" />
  <polygon points="510.60,423.94 513.80,423.94 513.80,427.37 510.60,427.37" fill="black" />
  <polygon points="501.00,428.25 504.20,428.25 504.20,431.67 501.00,431.67" fill="black" />
  <polygon points="513.80,426.83 517.00,426.83 517.00,430.25 513.80,430.25" fill="black" />
  <polygon points="501.00,431.67 504.20,431.67 504.20,435.10 501.00,435.10" fill="black" />
  <polygon points="504.20,431.50 507.40,431.50 507.40,434.93 504.20,434.93" fill="black" />
  <polygon points="507.40,431.21 510.60,431.21 510.60,434.64 507.40,434.64" fill="black" />
  <polygon points="510.60,430.79 513.80,430.79 513.80,434.22 510.60,434.22" fill="black" />
  <polygon points="513.80,430.25 517.00,430.25 517.00,433.68 513.80,433.68" fill="black" />
  <polygon points="501.00,435.10 504.20,435.10 504.20,438.53 501.00,438.53" fill="black" />
  <polygon points="504.20,438.36 507.40,438.36 507.40,441.79 504.20,441.79" fill="black" />
  <polygon points="507.40,438.07 510.60,438.07 510.60,441.50 507.40,441.50" fill="black" />
  <polygon points="510.60,437.65 513.80,437.65 513.80,441.08 510.60,441.08" fill="black" />
  <polygon points="540.20,414.46 543.40,414.46 543.40,417.89 540.20,417.89" fill="black" />
  <polygon points="543.40,412.88 546.60,412.88 546.60,416.31 543.40,416.31" fill="black" />
  <polygon points="546.60,411.20 549.80,411.20 549.80,414.63 546.60,414.63" fill="black" />
  <polygon points="549.80,409.43 553.00,409.43 553.00,412.86 549.80,412.86" fill="black" />
  <polygon points="537.00,419.38 540.20,419.38 540.20,422.80 537.00,422.80" fill="black" />
  <polygon points="540.20,421.31 543.40,421.31 543.40,424.74 540.20,424.74" fill="black" />
  <polygon points="543.40,419.73 546.60,419.73 546.60,423.16 543.40,423.16" fill="black" />
  <polygon points="546.60,418.05 549.80,418.05 549.80,421.48 546.60,421.48" fill="black" />
  <polygon points="549.80,419.71 553.00,419.71 553.00,423.14 549.80,423.14" fill="black" />
  <polygon points="537.00,429.66 540.20,429.66 540.20,433.09 537.00,433.09" fill="black" />
  <polygon points="540.20,428.17 543.40,428.17 543.40,431.60 540.20,431.60" fill="black" />
  <polygon points="543.40,426.59 546.60,426.59 546.60,430.02 543.40,430.02" fill="black" />
  <polygon points="546.60,424.91 549.80,424.91 549.80,428.34 546.60,428.34" fill="black" />
  <polygon points="558.20,404.38 561.40,404.38 561.40,407.81 558.20,407.81" fill="black" />
  <polygon points="561.40,402.31 564.60,402.31 564.60,405.74 561.40,405.74" fill="black" />
  <polygon points="564.60,400.18 567.80,400.18 567.80,403.61 564.60,403.61" fill="black" />
  <polygon points="555.00,409.80 558.20,409.80 558.20,413.22 555.00,413.22" fill="black" />
  <polygon points="567.80,401.41 571.00,401.41 571.00,404.83 567.80,404.83" fill="black" />
  <polygon points="555.00,413.22 558.20,413.22 558.20,416.65 555.00,416.65" fill="black" />
  <polygon points="558.20,411.23 561.40,411.23 561.40,414.66 558.20,414.66" fill="black" />
  <polygon points="561.40,409.16 564.60,409.16 564.60,412.59 561.40,412.59" fill="black" />
  <polygon points="564.60,407.03 567.80,407.03 567.80,410.46 564.60,410.46" fill="black" />
  <polygon points="567.80,404.83 571.00,404.83 571.00,408.26 567.80,408.26" fill="black" />
  <polygon points="555.00,416.65 558.20,416.65 558.20,420.08 555.00,420.08" fill="black" />
  <polygon points="558.20,418.09 561.40,418.09 561.40,421.52 558.20,421.52" fill="black" />
  <polygon points="561.40,416.02 564.60,416.02 564.60,419.45 561.40,419.45" fill="black" />
  <polygon points="564.60,413.89 567.80,413.89 567.80,417.32 564.60,417.32" fill="black" />
  <polygon points="573.00,394.28 576.20,394.28 576.20,397.71 573.00,397.71" fill="black" />
  <polygon points="576.20,391.94 579.40,391.94 579.40,395.37 576.20,395.37" fill="black" />
  <polygon points="579.40,389.56 582.60,389.56 582.60,392.99 579.40,392.99" fill="black" />
  <polygon points="582.60,387.14 585.80,387.14 585.80,390.57 582.60,390.57" fill="black" />
  <polygon points="573.00,397.71 576.20,397.71 576.20,401.13 573.00,401.13" fill="black" />
  <polygon points="585.80,388.12 589.00,388.12 589.00,391.54 585.80,391.54" fill="black" />
  <polygon points="573.00,401.13 576.20,401.13 576.20,404.56 573.00,404.56" fill="black" />
  <polygon points="585.80,391.54 589.00,391.54 589.00,394.97 585.80,394.97" fill="black" />
  <polygon points="573.00,404.56 576.20,404.56 576.20,407.99 573.00,407.99" fill="black" />
  <polygon points="585.80,394.97 589.00,394.97 589.00,398.40 585.80,398.40" fill="black" />
  <polygon points="573.00,407.99 576.20,407.99 576.20,411.42 573.00,411.42" fill="black" />
  <polygon points="585.80,398.40 589.00,398.40 589.00,401.83 585.80,401.83" fill="black" />
  <polygon points="603.80,363.76 607.00,363.76 607.00,367.19 603.80,367.19" fill="black" />
  <polygon points="603.80,367.19 607.00,367.19 607.00,370.62 603.80,370.62" fill="black" />
  <polygon points="594.20,378.16 597.40,378.16 597.40,381.59 594.20,381.59" fill="black" />
  <polygon points="597.40,375.65 600.60,375.65 600.60,379.08 597.40,379.08" fill="black" />
  <polygon points="600.60,373.13 603.80,373.13 603.80,376.56 600.60,376.56" fill="black" />
  <polygon points="603.80,370.62 607.00,370.62 607.00,374.05 603.80,374.05" fill="black" />
  <polygon points="591.00,384.09 594.20,384.09 594.20,387.51 591.00,387.51" fill="black" />
  <polygon points="603.80,374.05 607.00,374.05 607.00,377.47 603.80,377.47" fill="black" />
  <polygon points="591.00,387.51 594.20,387.51 594.20,390.94 591.00,390.94" fill="black" />
  <polygon points="603.80,377.47 607.00,377.47 607.00,380.90 603.80,380.90" fill="black" />
  <polygon points="591.00,390.94 594.20,390.94 594.20,394.37 591.00,394.37" fill="black" />
  <polygon points="603.80,380.90 607.00,380.90 607.00,384.33 603.80,384.33" fill="black" />
  <polygon points="594.20,391.87 597.40,391.87 597.40,395.30 594.20,395.30" fill="black" />
  <polygon points="597.40,389.36 600.60,389.36 600.60,392.79 597.40,392.79" fill="black" />
  <polygon points="600.60,386.84 603.80,386.84 603.80,390.27 600.60,390.27" fill="black" />
  <polygon points="603.80,384.33 607.00,384.33 607.00,387.76 603.80,387.76" fill="black" />
  <polygon points="630.20,350.91 633.40,350.91 633.40,354.34 630.20,354.34" fill="black" />
  <polygon points="633.40,348.74 636.60,348.74 636.60,352.17 633.40,352.17" fill="black" />
  <polygon points="636.60,346.63 639.80,346.63 639.80,350.06 636.60,350.06" fill="black" />
  <polygon points="639.80,348.02 643.00,348.02 643.00,351.44 639.80,351.44" fill="black" />
  <polygon points="630.20,357.76 633.40,357.76 633.40,361.19 630.20,361.19" fill="black" />
  <polygon points="633.40,355.59 636.60,355.59 636.60,359.02 633.40,359.02" fill="black" />
  <polygon points="636.60,353.48 639.80,353.48 639.80,356.91 636.60,356.91" fill="black" />
  <polygon points="639.80,351.44 643.00,351.44 643.00,354.87 639.80,354.87" fill="black" />
  <polygon points="627.00,363.43 630.20,363.43 630.20,366.86 627.00,366.86" fill="black" />
  <polygon points="639.80,354.87 643.00,354.87 643.00,358.30 639.80,358.30" fill="black" />
  <polygon points="630.20,364.62 633.40,364.62 633.40,368.05 630.20,368.05" fill="black" />
  <polygon points="633.40,362.45 636.60,362.45 636.60,365.88 633.40,365.88" fill="black" />
  <polygon points="636.60,360.34 639.80,360.34 639.80,363.77 636.60,363.77" fill="black" />
  <polygon points="639.80,358.30 643.00,358.30 643.00,361.73 639.80,361.73" fill="black" />
  <polygon points="645.00,341.44 648.20,341.44 648.20,344.87 645.00,344.87" fill="black" />
  <polygon points="648.20,339.62 651.40,339.62 651.40,343.05 648.20,343.05" fill="black" />
  <polygon points="651.40,337.88 654.60,337.88 654.60,341.31 651.40,341.31" fill="black" />
  <polygon points="654.60,336.23 657.80,336.23 657.80,339.66 654.60,339.66" fill="black" />
  <polygon points="645.00,344.87 648.20,344.87 648.20,348.29 645.00,348.29" fill="black" />
  <polygon points="657.80,338.12 661.00,338.12 661.00,341.54 657.80,341.54" fill="black" />
  <polygon points="645.00,348.29 648.20,348.29 648.20,351.72 645.00,351.72" fill="black" />
  <polygon points="657.80,341.54 661.00,341.54 661.00,344.97 657.80,344.97" fill="black" />
  <polygon points="645.00,351.72 648.20,351.72 648.20,355.15 645.00,355.15" fill="black" />
  <polygon points="657.80,344.97 661.00,344.97 661.00,348.40 657.80,348.40" fill="black" />
  <polygon points="645.00,355.15 648.20,355.15 648.20,358.58 645.00,358.58" fill="black" />
  <polygon points="657.80,348.40 661.00,348.40 661.00,351.83 657.80,351.83" fill="black" />
  <polygon points="684.20,326.10 687.40,326.10 687.40,329.53 684.20,329.53" fill="black" />
  <polygon points="687.40,325.60 690.60,325.60 690.60,329.03 687.40,329.03" fill="black" />
  <polygon points="690.60,325.23 693.80,325.23 693.80,328.66 690.60,328.66" fill="black" />
  <polygon points="681.00,330.15 684.20,330.15 684.20,333.57 681.00,333.57" fill="black" />
  <polygon points="693.80,328.42 697.00,328.42 697.00,331.84 693.80,331.84" fill="black" />
  <polygon points="681.00,333.57 684.20,333.57 684.20,337.00 681.00,337.00" fill="black" />
  <polygon points="684.20,332.95 687.40,332.95 687.40,336.38 684.20,336.38" fill="black" />
  <polygon points="687.40,332.45 690.60,332.45 690.60,335.88 687.40,335.88" fill="black" />
  <polygon points="690.60,332.08 693.80,332.08 693.80,335.51 690.60,335.51" fill="black" />
  <polygon points="693.80,331.84 697.00,331.84 697.00,335.27 693.80,335.27" fill="black" />
  <polygon points="681.00,337.00 684.20,337.00 684.20,340.43 681.00,340.43" fill="black" />
  <polygon points="684.20,339.81 687.40,339.81 687.40,343.24 684.20,343.24" fill="black" />
  <polygon points="687.40,339.31 690.60,339.31 690.60,342.74 687.40,342.74" fill="black" />
  <polygon points="690.60,338.94 693.80,338.94 693.80,342.37 690.60,342.37" fill="black" />
  <polygon points="699.00,324.86 702.20,324.86 702.20,328.29 699.00,328.29" fill="black" />
  <polygon points="702.20,324.95 705.40,324.95 705.40,328.38 702.20,328.38" fill="black" />
  <polygon points="708.60,325.50 711.80,325.50 711.80,328.93 708.60,328.93" fill="black" />
  <polygon points="699.00,328.29 702.20,328.29 702.20,331.71 699.00,331.71" fill="black" />
  <polygon points="705.40,328.59 708.60,328.59 708.60,332.01 705.40,332.01" fill="black" />
  <polygon points="711.80,329.39 715.00,329.39 715.00,332.81 711.80,332.81" fill="black" />
  <polygon points="699.00,331.71 702.20,331.71 702.20,335.14 699.00,335.14" fill="black" />
  <polygon points="705.40,332.01 708.60,332.01 708.60,335.44 705.40,335.44" fill="black" />
  <polygon points="711.80,332.81 715.00,332.81 715.00,336.24 711.80,336.24" fill="black" />
  <polygon points="699.00,335.14 702.20,335.14 702.20,338.57 699.00,338.57" fill="black" />
  <polygon points="705.40,335.44 708.60,335.44 708.60,338.87 705.40,338.87" fill="black" />
  <polygon points="711.80,336.24 715.00,336.24 715.00,339.67 711.80,339.67" fill="black" />
  <polygon points="699.00,338.57 702.20,338.57 702.20,342.00 699.00,342.00" fill="black" />
  <polygon points="711.80,339.67 715.00,339.67 715.00,343.10 711.80,343.10" fill="black" />
  <polygon points="720.20,327.76 723.40,327.76 723.40,331.19 720.20,331.19" fill="black" />
  <polygon points="723.40,328.67 726.60,328.67 726.60,332.10 723.40,332.10" fill="black" />
  <polygon points="726.60,329.69 729.80,329.69 729.80,333.12 726.60,333.12" fill="black" />
  <polygon points="729.80,334.25 733.00,334.25 733.00,337.67 729.80,337.67" fill="black" />
  <polygon points="720.20,334.61 723.40,334.61 723.40,338.04 720.20,338.04" fill="black" />
  <polygon points="723.40,335.52 726.60,335.52 726.60,338.95 723.40,338.95" fill="black" />
  <polygon points="726.60,336.54 729.80,336.54 729.80,339.97 726.60,339.97" fill="black" />
  <polygon points="729.80,337.67 733.00,337.67 733.00,341.10 729.80,341.10" fill="black" />
  <polygon points="717.00,337.26 720.20,337.26 720.20,340.69 717.00,340.69" fill="black" />
  <polygon points="729.80,341.10 733.00,341.10 733.00,344.53 729.80,344.53" fill="black" />
  <polygon points="720.20,341.47 723.40,341.47 723.40,344.90 720.20,344.90" fill="black" />
  <polygon points="723.40,342.38 726.60,342.38 726.60,345.81 723.40,345.81" fill="black" />
  <polygon points="726.60,343.40 729.80,343.40 729.80,346.83 726.60,346.83" fill="black" />
  <polygon points="729.80,344.53 733.00,344.53 733.00,347.96 729.80,347.96" fill="black" />
  <polygon points="741.40,328.98 744.60,328.98 744.60,332.41 741.40,332.41" fill="black" />
  <polygon points="738.20,334.32 741.40,334.32 741.40,337.75 738.20,337.75" fill="black" />
  <polygon points="741.40,335.84 744.60,335.84 744.60,339.27 741.40,339.27" fill="black" />
  <polygon points="741.40,339.27 744.60,339.27 744.60,342.69 741.40,342.69" fill="black" />
  <polygon points="741.40,342.69 744.60,342.69 744.60,346.12 741.40,346.12" fill="black" />
  <polygon points="741.40,346.12 744.60,346.12 744.60,349.55 741.40,349.55" fill="black" />
  <polygon points="738.20,348.03 741.40,348.03 741.40,351.46 738.20,351.46" fill="black" />
  <polygon points="741.40,349.55 744.60,349.55 744.60,352.98 741.40,352.98" fill="black" />
  <polygon points="744.60,351.17 747.80,351.17 747.80,354.60 744.60,354.60" fill="black" />
  <polygon points="756.20,337.23 759.40,337.23 759.40,340.66 756.20,340.66" fill="black" />
  <polygon points="759.40,339.25 762.60,339.25 762.60,342.68 759.40,342.68" fill="black" />
  <polygon points="759.40,342.68 762.60,342.68 762.60,346.11 759.40,346.11" fill="black" />
  <polygon points="759.40,346.11 762.60,346.11 762.60,349.54 759.40,349.54" fill="black" />
  <polygon points="759.40,349.54 762.60,349.54 762.60,352.96 759.40,352.96" fill="black" />
  <polygon points="759.40,352.96 762.60,352.96 762.60,356.39 759.40,356.39" fill="black" />
  <polygon points="759.40,356.39 762.60,356.39 762.60,359.82 759.40,359.82" fill="black" />
  <polygon points="756.20,357.80 759.40,357.80 759.40,361.23 756.20,361.23" fill="black" />
  <polygon points="759.40,359.82 762.60,359.82 762.60,363.25 759.40,363.25" fill="black" />
  <polygon points="762.60,361.91 765.80,361.91 765.80,365.34 762.60,365.34" fill="black" />
  <polygon points="792.20,363.14 795.40,363.14 795.40,366.57 792.20,366.57" fill="black" />
  <polygon points="792.20,366.57 795.40,366.57 795.40,370.00 792.20,370.00" fill="black" />
  <polygon points="789.00,367.50 792.20,367.50 792.20,370.93 789.00,370.93" fill="black" />
  <polygon points="792.20,370.00 795.40,370.00 795.40,373.43 792.20,373.43" fill="black" />
  <polygon points="795.40,372.50 798.60,372.50 798.60,375.93 795.40,375.93" fill="black" />
  <polygon points="798.60,375.02 801.80,375.02 801.80,378.45 798.60,378.45" fill="black" />
  <polygon points="792.20,373.43 795.40,373.43 795.40,376.85 792.20,376.85" fill="black" />
  <polygon points="792.20,376.85 795.40,376.85 795.40,380.28 792.20,380.28" fill="black" />
  <polygon points="792.20,380.28 795.40,380.28 795.40,383.71 792.20,383.71" fill="black" />
  <polygon points="801.80,387.81 805.00,387.81 805.00,391.24 801.80,391.24" fill="black" />
  <polygon points="795.40,386.21 798.60,386.21 798.60,389.64 795.40,389.64" fill="black" />
  <polygon points="798.60,388.73 801.80,388.73 801.80,392.16 798.60,392.16" fill="black" />
  <polygon points="810.20,384.07 813.40,384.07 813.40,387.50 810.20,387.50" fill="black" />
  <polygon points="813.40,386.53 816.60,386.53 816.60,389.96 813.40,389.96" fill="black" />
  <polygon points="816.60,388.96 819.80,388.96 819.80,392.39 816.60,392.39" fill="black" />
  <polygon points="807.00,385.02 810.20,385.02 810.20,388.44 807.00,388.44" fill="black" />
  <polygon points="819.80,394.78 823.00,394.78 823.00,398.20 819.80,398.20" fill="black" />
  <polygon points="807.00,388.44 810.20,388.44 810.20,391.87 807.00,391.87" fill="black" />
  <polygon points="819.80,398.20 823.00,398.20 823.00,401.63 819.80,401.63" fill="black" />
  <polygon points="807.00,391.87 810.20,391.87 810.20,395.30 807.00,395.30" fill="black" />
  <polygon points="819.80,401.63 823.00,401.63 823.00,405.06 819.80,405.06" fill="black" />
  <polygon points="810.20,397.78 813.40,397.78 813.40,401.21 810.20,401.21" fill="black" />
  <polygon points="813.40,400.24 816.60,400.24 816.60,403.67 813.40,403.67" fill="black" />
  <polygon points="816.60,402.67 819.80,402.67 819.80,406.10 816.60,406.10" fill="black" />
  <polygon points="339.00,367.83 342.20,367.83 342.20,371.26 339.00,371.26" fill="black" />
  <polygon points="339.00,371.26 342.20,371.26 342.20,374.69 339.00,374.69" fill="black" />
  <polygon points="339.00,374.69 342.20,374.69 342.20,378.12 339.00,378.12" fill="black" />
  <polygon points="348.60,379.62 351.80,379.62 351.80,383.05 348.60,383.05" fill="black" />
  <polygon points="339.00,378.12 342.20,378.12 342.20,381.54 339.00,381.54" fill="black" />
  <polygon points="345.40,381.31 348.60,381.31 348.60,384.73 345.40,384.73" fill="black" />
  <polygon points="339.00,381.54 342.20,381.54 342.20,384.97 339.00,384.97" fill="black" />
  <polygon points="342.20,383.08 345.40,383.08 345.40,386.51 342.20,386.51" fill="black" />
  <polygon points="339.00,384.97 342.20,384.97 342.20,388.40 339.00,388.40" fill="black" />
  <polygon points="345.40,388.16 348.60,388.16 348.60,391.59 345.40,391.59" fill="black" />
  <polygon points="339.00,388.40 342.20,388.40 342.20,391.83 339.00,391.83" fill="black" />
  <polygon points="348.60,393.33 351.80,393.33 351.80,396.76 348.60,396.76" fill="black" />
  <polygon points="360.20,386.63 363.40,386.63 363.40,390.06 360.20,390.06" fill="black" />
  <polygon points="363.40,388.74 366.60,388.74 366.60,392.17 363.40,392.17" fill="black" />
  <polygon points="366.60,390.91 369.80,390.91 369.80,394.34 366.60,394.34" fill="black" />
  <polygon points="357.00,388.02 360.20,388.02 360.20,391.44 357.00,391.44" fill="black" />
  <polygon points="369.80,396.58 373.00,396.58 373.00,400.00 369.80,400.00" fill="black" />
  <polygon points="357.00,391.44 360.20,391.44 360.20,394.87 357.00,394.87" fill="black" />
  <polygon points="360.20,393.48 363.40,393.48 363.40,396.91 360.20,396.91" fill="black" />
  <polygon points="363.40,395.59 366.60,395.59 366.60,399.02 363.40,399.02" fill="black" />
  <polygon points="366.60,397.76 369.80,397.76 369.80,401.19 366.60,401.19" fill="black" />
  <polygon points="369.80,400.00 373.00,400.00 373.00,403.43 369.80,403.43" fill="black" />
  <polygon points="357.00,394.87 360.20,394.87 360.20,398.30 357.00,398.30" fill="black" />
  <polygon points="360.20,400.34 363.40,400.34 363.40,403.77 360.20,403.77" fill="black" />
  <polygon points="363.40,402.45 366.60,402.45 366.60,405.88 363.40,405.88" fill="black" />
  <polygon points="366.60,404.62 369.80,404.62 369.80,408.05 366.60,408.05" fill="black" />
  <polygon points="378.20,392.40 381.40,392.40 381.40,395.83 378.20,395.83" fill="black" />
  <polygon points="381.40,394.81 384.60,394.81 384.60,398.24 381.40,398.24" fill="black" />
  <polygon points="381.40,398.24 384.60,398.24 384.60,401.67 381.40,401.67" fill="black" />
  <polygon points="381.40,401.67 384.60,401.67 384.60,405.10 381.40,405.10" fill="black" />
  <polygon points="381.40,405.10 384.60,405.10 384.60,408.52 381.40,408.52" fill="black" />
  <polygon points="381.40,408.52 384.60,408.52 384.60,411.95 381.40,411.95" fill="black" />
  <polygon points="381.40,411.95 384.60,411.95 384.60,415.38 381.40,415.38" fill="black" />
  <polygon points="378.20,412.97 381.40,412.97 381.40,416.40 378.20,416.40" fill="black" />
  <polygon points="381.40,415.38 384.60,415.38 384.60,418.81 381.40,418.81" fill="black" />
  <polygon points="384.60,417.82 387.80,417.82 387.80,421.25 384.60,421.25" fill="black" />
  <polygon points="399.40,408.79 402.60,408.79 402.60,412.22 399.40,412.22" fill="black" />
  <polygon points="402.60,411.30 405.80,411.30 405.80,414.73 402.60,414.73" fill="black" />
  <polygon points="396.20,409.70 399.40,409.70 399.40,413.13 396.20,413.13" fill="black" />
  <polygon points="405.80,417.23 409.00,417.23 409.00,420.66 405.80,420.66" fill="black" />
  <polygon points="396.20,413.13 399.40,413.13 399.40,416.56 396.20,416.56" fill="black" />
  <polygon points="393.00,414.05 396.20,414.05 396.20,417.47 393.00,417.47" fill="black" />
  <polygon points="396.20,416.56 399.40,416.56 399.40,419.98 396.20,419.98" fill="black" />
  <polygon points="399.40,419.08 402.60,419.08 402.60,422.50 399.40,422.50" fill="black" />
  <polygon points="402.60,421.59 405.80,421.59 405.80,425.01 402.60,425.01" fill="black" />
  <polygon points="396.20,419.98 399.40,419.98 399.40,423.41 396.20,423.41" fill="black" />
  <polygon points="396.20,423.41 399.40,423.41 399.40,426.84 396.20,426.84" fill="black" />
  <polygon points="396.20,426.84 399.40,426.84 399.40,430.27 396.20,430.27" fill="black" />
  <polygon points="423.80,427.42 427.00,427.42 427.00,430.85 423.80,430.85" fill="black" />
  <polygon points="423.80,430.85 427.00,430.85 427.00,434.28 423.80,434.28" fill="black" />
  <polygon points="414.20,427.14 417.40,427.14 417.40,430.57 414.20,430.57" fill="black" />
  <polygon points="417.40,429.56 420.60,429.56 420.60,432.99 417.40,432.99" fill="black" />
  <polygon points="420.60,431.94 423.80,431.94 423.80,435.37 420.60,435.37" fill="black" />
  <polygon points="423.80,434.28 427.00,434.28 427.00,437.71 423.80,437.71" fill="black" />
  <polygon points="411.00,428.12 414.20,428.12 414.20,431.54 411.00,431.54" fill="black" />
  <polygon points="423.80,437.71 427.00,437.71 427.00,441.13 423.80,441.13" fill="black" />
  <polygon points="411.00,431.54 414.20,431.54 414.20,434.97 411.00,434.97" fill="black" />
  <polygon points="423.80,441.13 427.00,441.13 427.00,444.56 423.80,444.56" fill="black" />
  <polygon points="411.00,434.97 414.20,434.97 414.20,438.40 411.00,438.40" fill="black" />
  <polygon points="423.80,444.56 427.00,444.56 427.00,447.99 423.80,447.99" fill="black" />
  <polygon points="414.20,440.85 417.40,440.85 417.40,444.28 414.20,444.28" fill="black" />
  <polygon points="417.40,443.27 420.60,443.27 420.60,446.70 417.40,446.70" fill="black" />
  <polygon points="420.60,445.65 423.80,445.65 423.80,449.08 420.60,449.08" fill="black" />
  <polygon points="423.80,447.99 427.00,447.99 427.00,451.42 423.80,451.42" fill="black" />
  <polygon points="432.20,440.18 435.40,440.18 435.40,443.61 432.20,443.61" fill="black" />
  <polygon points="435.40,442.31 438.60,442.31 438.60,445.74 435.40,445.74" fill="black" />
  <polygon points="438.60,444.38 441.80,444.38 441.80,447.81 438.60,447.81" fill="black" />
  <polygon points="429.00,441.41 432.20,441.41 432.20,444.83 429.00,444.83" fill="black" />
  <polygon points="441.80,449.80 445.00,449.80 445.00,453.22 441.80,453.22" fill="black" />
  <polygon points="429.00,444.83 432.20,444.83 432.20,448.26 429.00,448.26" fill="black" />
  <polygon points="432.20,447.03 435.40,447.03 435.40,450.46 432.20,450.46" fill="black" />
  <polygon points="435.40,449.16 438.60,449.16 438.60,452.59 435.40,452.59" fill="black" />
  <polygon points="438.60,451.23 441.80,451.23 441.80,454.66 438.60,454.66" fill="black" />
  <polygon points="441.80,453.22 445.00,453.22 445.00,456.65 441.80,456.65" fill="black" />
  <polygon points="429.00,448.26 432.20,448.26 432.20,451.69 429.00,451.69" fill="black" />
  <polygon points="432.20,453.89 435.40,453.89 435.40,457.32 432.20,457.32" fill="black" />
  <polygon points="435.40,456.02 438.60,456.02 438.60,459.45 435.40,459.45" fill="black" />
  <polygon points="438.60,458.09 441.80,458.09 441.80,461.52 438.60,461.52" fill="black" />
  <polygon points="447.00,449.43 450.20,449.43 450.20,452.86 447.00,452.86" fill="black" />
  <polygon points="459.80,455.95 463.00,455.95 463.00,459.38 459.80,459.38" fill="black" />
  <polygon points="447.00,452.86 450.20,452.86 450.20,456.28 447.00,456.28" fill="black" />
  <polygon points="459.80,459.38 463.00,459.38 463.00,462.80 459.80,462.80" fill="black" />
  <polygon points="447.00,456.28 450.20,456.28 450.20,459.71 447.00,459.71" fill="black" />
  <polygon points="459.80,462.80 463.00,462.80 463.00,466.23 459.80,466.23" fill="black" />
  <polygon points="450.20,461.48 453.40,461.48 453.40,464.91 450.20,464.91" fill="black" />
  <polygon points="456.60,464.74 459.80,464.74 459.80,468.17 456.60,468.17" fill="black" />
  <polygon points="453.40,466.59 456.60,466.59 456.60,470.02 453.40,470.02" fill="black" />
  <polygon points="468.20,459.34 471.40,459.34 471.40,462.77 468.20,462.77" fill="black" />
  <polygon points="471.40,460.43 474.60,460.43 474.60,463.86 471.40,463.86" fill="black" />
  <polygon points="474.60,461.41 477.80,461.41 477.80,464.84 474.60,464.84" fill="black" />
  <polygon points="477.80,462.27 481.00,462.27 481.00,465.70 477.80,465.70" fill="black" />
  <polygon points="465.00,461.57 468.20,461.57 468.20,464.99 465.00,464.99" fill="black" />
  <polygon points="468.20,466.19 471.40,466.19 471.40,469.62 468.20,469.62" fill="black" />
  <polygon points="471.40,467.28 474.60,467.28 474.60,470.71 471.40,470.71" fill="black" />
  <polygon points="474.60,468.26 477.80,468.26 477.80,471.69 474.60,471.69" fill="black" />
  <polygon points="477.80,472.55 481.00,472.55 481.00,475.98 477.80,475.98" fill="black" />
  <polygon points="465.00,471.85 468.20,471.85 468.20,475.28 465.00,475.28" fill="black" />
  <polygon points="468.20,473.05 471.40,473.05 471.40,476.48 468.20,476.48" fill="black" />
  <polygon points="471.40,474.14 474.60,474.14 474.60,477.57 471.40,477.57" fill="black" />
  <polygon points="474.60,475.12 477.80,475.12 477.80,478.55 474.60,478.55" fill="black" />
  <polygon points="486.20,457.08 489.40,457.08 489.40,460.51 486.20,460.51" fill="black" />
  <polygon points="489.40,457.50 492.60,457.50 492.60,460.93 489.40,460.93" fill="black" />
  <polygon points="492.60,457.79 495.80,457.79 495.80,461.22 492.60,461.22" fill="black" />
  <polygon points="483.00,459.97 486.20,459.97 486.20,463.40 483.00,463.40" fill="black" />
  <polygon points="495.80,461.39 499.00,461.39 499.00,464.82 495.80,464.82" fill="black" />
  <polygon points="483.00,463.40 486.20,463.40 486.20,466.83 483.00,466.83" fill="black" />
  <polygon points="489.40,464.36 492.60,464.36 492.60,467.79 489.40,467.79" fill="black" />
  <polygon points="492.60,464.65 495.80,464.65 495.80,468.08 492.60,468.08" fill="black" />
  <polygon points="495.80,464.82 499.00,464.82 499.00,468.25 495.80,468.25" fill="black" />
  <polygon points="483.00,466.83 486.20,466.83 486.20,470.25 483.00,470.25" fill="black" />
  <polygon points="489.40,467.79 492.60,467.79 492.60,471.21 489.40,471.21" fill="black" />
  <polygon points="495.80,468.25 499.00,468.25 499.00,471.67 495.80,471.67" fill="black" />
  <polygon points="483.00,470.25 486.20,470.25 486.20,473.68 483.00,473.68" fill="black" />
  <polygon points="489.40,471.21 492.60,471.21 492.60,474.64 489.40,474.64" fill="black" />
  <polygon points="492.60,471.50 495.80,471.50 495.80,474.93 492.60,474.93" fill="black" />
  <polygon points="495.80,471.67 499.00,471.67 499.00,475.10 495.80,475.10" fill="black" />
  <polygon points="483.00,473.68 486.20,473.68 486.20,477.11 483.00,477.11" fill="black" />
  <polygon points="486.20,477.65 489.40,477.65 489.40,481.08 486.20,481.08" fill="black" />
  <polygon points="489.40,478.07 492.60,478.07 492.60,481.50 489.40,481.50" fill="black" />
  <polygon points="492.60,478.36 495.80,478.36 495.80,481.79 492.60,481.79" fill="black" />
  <polygon points="495.80,478.53 499.00,478.53 499.00,481.96 495.80,481.96" fill="black" />
  <polygon points="504.20,461.22 507.40,461.22 507.40,464.65 504.20,464.65" fill="black" />
  <polygon points="507.40,460.93 510.60,460.93 510.60,464.36 507.40,464.36" fill="black" />
  <polygon points="510.60,460.51 513.80,460.51 513.80,463.94 510.60,463.94" fill="black" />
  <polygon points="513.80,459.97 517.00,459.97 517.00,463.40 513.80,463.40" fill="black" />
  <polygon points="501.00,464.82 504.20,464.82 504.20,468.25 501.00,468.25" fill="black" />
  <polygon points="513.80,463.40 517.00,463.40 517.00,466.83 513.80,466.83" fill="black" />
  <polygon points="501.00,468.25 504.20,468.25 504.20,471.67 501.00,471.67" fill="black" />
  <polygon points="513.80,466.83 517.00,466.83 517.00,470.25 513.80,470.25" fill="black" />
  <polygon points="504.20,471.50 507.40,471.50 507.40,474.93 504.20,474.93" fill="black" />
  <polygon points="507.40,471.21 510.60,471.21 510.60,474.64 507.40,474.64" fill="black" />
  <polygon points="510.60,470.79 513.80,470.79 513.80,474.22 510.60,474.22" fill="black" />
  <polygon points="513.80,470.25 517.00,470.25 517.00,473.68 513.80,473.68" fill="black" />
  <polygon points="513.80,473.68 517.00,473.68 517.00,477.11 513.80,477.11" fill="black" />
  <polygon points="504.20,478.36 507.40,478.36 507.40,481.79 504.20,481.79" fill="black" />
  <polygon points="507.40,478.07 510.60,478.07 510.60,481.50 507.40,481.50" fill="black" />
  <polygon points="510.60,477.65 513.80,477.65 513.80,481.08 510.60,481.08" fill="black" />
  <polygon points="519.00,462.27 522.20,462.27 522.20,465.70 519.00,465.70" fill="black" />
  <polygon points="522.20,461.41 525.40,461.41 525.40,464.84 522.20,464.84" fill="black" />
  <polygon points="528.60,459.34 531.80,459.34 531.80,462.77 528.60,462.77" fill="black" />
  <polygon points="519.00,465.70 522.20,465.70 522.20,469.12 519.00,469.12" fill="black" />
  <polygon points="525.40,463.86 528.60,463.86 528.60,467.28 525.40,467.28" fill="black" />
  <polygon points="531.80,461.57 535.00,461.57 535.00,464.99 531.80,464.99" fill="black" />
  <polygon points="519.00,469.12 522.20,469.12 522.20,472.55 519.00,472.55" fill="black" />
  <polygon points="525.40,467.28 528.60,467.28 528.60,470.71 525.40,470.71" fill="black" />
  <polygon points="531.80,464.99 535.00,464.99 535.00,468.42 531.80,468.42" fill="black" />
  <polygon points="519.00,472.55 522.20,472.55 522.20,475.98 519.00,475.98" fill="black" />
  <polygon points="525.40,470.71 528.60,470.71 528.60,474.14 525.40,474.14" fill="black" />
  <polygon points="531.80,468.42 535.00,468.42 535.00,471.85 531.80,471.85" fill="black" />
  <polygon points="519.00,475.98 522.20,475.98 522.20,479.41 519.00,479.41" fill="black" />
  <polygon points="531.80,471.85 535.00,471.85 535.00,475.28 531.80,475.28" fill="black" />
  <polygon points="540.20,454.46 543.40,454.46 543.40,457.89 540.20,457.89" fill="black" />
  <polygon points="543.40,452.88 546.60,452.88 546.60,456.31 543.40,456.31" fill="black" />
  <polygon points="546.60,451.20 549.80,451.20 549.80,454.63 546.60,454.63" fill="black" />
  <polygon points="549.80,452.86 553.00,452.86 553.00,456.28 549.80,456.28" fill="black" />
  <polygon points="540.20,461.31 543.40,461.31 543.40,464.74 540.20,464.74" fill="black" />
  <polygon points="543.40,459.73 546.60,459.73 546.60,463.16 543.40,463.16" fill="black" />
  <polygon points="546.60,458.05 549.80,458.05 549.80,461.48 546.60,461.48" fill="black" />
  <polygon points="549.80,456.28 553.00,456.28 553.00,459.71 549.80,459.71" fill="black" />
  <polygon points="537.00,466.23 540.20,466.23 540.20,469.66 537.00,469.66" fill="black" />
  <polygon points="549.80,459.71 553.00,459.71 553.00,463.14 549.80,463.14" fill="black" />
  <polygon points="540.20,468.17 543.40,468.17 543.40,471.60 540.20,471.60" fill="black" />
  <polygon points="543.40,466.59 546.60,466.59 546.60,470.02 543.40,470.02" fill="black" />
  <polygon points="546.60,464.91 549.80,464.91 549.80,468.34 546.60,468.34" fill="black" />
  <polygon points="549.80,463.14 553.00,463.14 553.00,466.57 549.80,466.57" fill="black" />
  <polygon points="561.40,435.45 564.60,435.45 564.60,438.88 561.40,438.88" fill="black" />
  <polygon points="558.20,444.38 561.40,444.38 561.40,447.81 558.20,447.81" fill="black" />
  <polygon points="561.40,442.31 564.60,442.31 564.60,445.74 561.40,445.74" fill="black" />
  <polygon points="561.40,445.74 564.60,445.74 564.60,449.16 561.40,449.16" fill="black" />
  <polygon points="561.40,449.16 564.60,449.16 564.60,452.59 561.40,452.59" fill="black" />
  <polygon points="561.40,452.59 564.60,452.59 564.60,456.02 561.40,456.02" fill="black" />
  <polygon points="558.20,458.09 561.40,458.09 561.40,461.52 558.20,461.52" fill="black" />
  <polygon points="561.40,456.02 564.60,456.02 564.60,459.45 561.40,459.45" fill="black" />
  <polygon points="564.60,453.89 567.80,453.89 567.80,457.32 564.60,457.32" fill="black" />
  <polygon points="576.20,425.08 579.40,425.08 579.40,428.51 576.20,428.51" fill="black" />
  <polygon points="579.40,422.70 582.60,422.70 582.60,426.13 579.40,426.13" fill="black" />
  <polygon points="579.40,426.13 582.60,426.13 582.60,429.56 579.40,429.56" fill="black" />
  <polygon points="579.40,429.56 582.60,429.56 582.60,432.99 579.40,432.99" fill="black" />
  <polygon points="579.40,432.99 582.60,432.99 582.60,436.41 579.40,436.41" fill="black" />
  <polygon points="579.40,436.41 582.60,436.41 582.60,439.84 579.40,439.84" fill="black" />
  <polygon points="579.40,439.84 582.60,439.84 582.60,443.27 579.40,443.27" fill="black" />
  <polygon points="576.20,445.65 579.40,445.65 579.40,449.08 576.20,449.08" fill="black" />
  <polygon points="579.40,443.27 582.60,443.27 582.60,446.70 579.40,446.70" fill="black" />
  <polygon points="582.60,440.85 585.80,440.85 585.80,444.28 582.60,444.28" fill="black" />
  <polygon points="597.40,429.36 600.60,429.36 600.60,432.79 597.40,432.79" fill="black" />
  <polygon points="612.20,404.11 615.40,404.11 615.40,407.54 612.20,407.54" fill="black" />
  <polygon points="615.40,401.67 618.60,401.67 618.60,405.10 615.40,405.10" fill="black" />
  <polygon points="618.60,399.26 621.80,399.26 621.80,402.69 618.60,402.69" fill="black" />
  <polygon points="609.00,410.00 612.20,410.00 612.20,413.42 609.00,413.42" fill="black" />
  <polygon points="621.80,400.32 625.00,400.32 625.00,403.74 621.80,403.74" fill="black" />
  <polygon points="609.00,413.42 612.20,413.42 612.20,416.85 609.00,416.85" fill="black" />
  <polygon points="609.00,416.85 612.20,416.85 612.20,420.28 609.00,420.28" fill="black" />
  <polygon points="621.80,407.17 625.00,407.17 625.00,410.60 621.80,410.60" fill="black" />
  <polygon points="612.20,417.82 615.40,417.82 615.40,421.25 612.20,421.25" fill="black" />
  <polygon points="615.40,415.38 618.60,415.38 618.60,418.81 615.40,418.81" fill="black" />
  <polygon points="618.60,412.97 621.80,412.97 621.80,416.40 618.60,416.40" fill="black" />
  <polygon points="630.20,390.91 633.40,390.91 633.40,394.34 630.20,394.34" fill="black" />
  <polygon points="633.40,388.74 636.60,388.74 636.60,392.17 633.40,392.17" fill="black" />
  <polygon points="636.60,386.63 639.80,386.63 639.80,390.06 636.60,390.06" fill="black" />
  <polygon points="627.00,396.58 630.20,396.58 630.20,400.00 627.00,400.00" fill="black" />
  <polygon points="639.80,388.02 643.00,388.02 643.00,391.44 639.80,391.44" fill="black" />
  <polygon points="627.00,400.00 630.20,400.00 630.20,403.43 627.00,403.43" fill="black" />
  <polygon points="639.80,391.44 643.00,391.44 643.00,394.87 639.80,394.87" fill="black" />
  <polygon points="627.00,403.43 630.20,403.43 630.20,406.86 627.00,406.86" fill="black" />
  <polygon points="639.80,394.87 643.00,394.87 643.00,398.30 639.80,398.30" fill="black" />
  <polygon points="630.20,404.62 633.40,404.62 633.40,408.05 630.20,408.05" fill="black" />
  <polygon points="633.40,402.45 636.60,402.45 636.60,405.88 633.40,405.88" fill="black" />
  <polygon points="636.60,400.34 639.80,400.34 639.80,403.77 636.60,403.77" fill="black" />
  <polygon points="645.00,381.44 648.20,381.44 648.20,384.87 645.00,384.87" fill="black" />
  <polygon points="648.20,379.62 651.40,379.62 651.40,383.05 648.20,383.05" fill="black" />
  <polygon points="654.60,376.23 657.80,376.23 657.80,379.66 654.60,379.66" fill="black" />
  <polygon points="645.00,384.87 648.20,384.87 648.20,388.29 645.00,388.29" fill="black" />
  <polygon points="651.40,381.31 654.60,381.31 654.60,384.73 651.40,384.73" fill="black" />
  <polygon points="657.80,378.12 661.00,378.12 661.00,381.54 657.80,381.54" fill="black" />
  <polygon points="645.00,388.29 648.20,388.29 648.20,391.72 645.00,391.72" fill="black" />
  <polygon points="651.40,384.73 654.60,384.73 654.60,388.16 651.40,388.16" fill="black" />
  <polygon points="657.80,381.54 661.00,381.54 661.00,384.97 657.80,384.97" fill="black" />
  <polygon points="645.00,391.72 648.20,391.72 648.20,395.15 645.00,395.15" fill="black" />
  <polygon points="651.40,388.16 654.60,388.16 654.60,391.59 651.40,391.59" fill="black" />
  <polygon points="657.80,384.97 661.00,384.97 661.00,388.40 657.80,388.40" fill="black" />
  <polygon points="645.00,395.15 648.20,395.15 648.20,398.58 645.00,398.58" fill="black" />
  <polygon points="657.80,388.40 661.00,388.40 661.00,391.83 657.80,391.83" fill="black" />
</svg>